<svg id="svg" version="1.1" xmlns="http://www.w3.org/2000/svg" xmlns:xlink="http://www.w3.org/1999/xlink" width="400" height="400" viewBox="0, 0, 400,400"><g id="svgg"><path id="path0" d="M230.728 67.592 C 190.817 71.472,163.882 92.077,159.417 122.145 C 156.340 142.872,164.266 159.297,191.388 188.400 C 222.588 221.878,230.542 236.899,230.572 262.400 C 230.605 290.149,216.527 307.973,193.000 309.969 C 169.702 311.946,153.545 296.755,154.532 273.800 C 155.274 256.537,167.688 244.595,187.600 241.993 C 194.894 241.039,195.342 240.720,194.393 237.154 C 190.308 221.797,166.446 215.520,146.200 224.478 C 128.052 232.507,116.668 249.891,115.209 271.800 C 112.534 312.001,139.929 336.000,188.494 336.000 C 246.843 336.000,286.000 301.223,286.000 249.400 C 286.000 217.680,275.059 198.196,240.196 167.828 C 215.329 146.168,207.005 132.800,207.055 114.600 C 207.119 91.001,226.219 76.787,249.800 82.790 C 270.941 88.172,273.855 117.138,255.026 134.732 C 250.125 139.312,262.206 144.444,272.521 142.164 C 295.611 137.059,302.662 99.591,283.980 81.272 C 273.804 71.294,251.522 65.570,230.728 67.592 " stroke="none" fill="#f9f9f9" fill-rule="evenodd"></path><path id="path1" d="M0.000 200.000 L 0.000 400.000 200.000 400.000 L 400.000 400.000 400.000 200.000 L 400.000 0.000 200.000 0.000 L 0.000 0.000 0.000 200.000 M257.200 65.932 C 283.439 70.683,297.557 85.503,297.594 108.336 C 297.633 132.506,282.042 148.489,261.652 145.180 C 257.764 144.550,251.792 141.104,250.604 138.808 C 249.429 136.535,249.743 135.819,253.748 131.634 C 265.741 119.101,268.106 100.144,258.832 90.871 C 254.222 86.260,250.247 85.012,240.200 85.018 L 232.200 85.023 228.600 86.350 C 218.084 90.224,213.337 95.777,210.584 107.427 C 206.474 124.822,215.936 143.062,239.600 163.365 C 272.623 191.697,282.828 206.849,288.248 235.600 C 289.996 244.872,289.189 260.445,286.342 272.400 C 279.360 301.715,256.530 324.690,225.400 333.729 C 216.600 336.284,214.449 336.789,210.511 337.219 C 208.360 337.455,204.980 337.952,203.000 338.324 C 197.840 339.293,178.444 339.287,173.800 338.315 C 172.040 337.947,169.250 337.525,167.600 337.379 C 156.318 336.375,139.500 329.009,130.549 321.152 C 103.254 297.194,106.459 246.935,136.590 226.426 C 159.241 211.007,190.732 215.836,197.004 235.689 C 199.252 242.805,198.286 243.966,189.433 244.786 C 173.630 246.252,161.332 255.219,158.172 267.580 C 157.215 271.326,157.537 282.837,158.688 286.000 C 164.371 301.619,176.191 308.613,193.871 306.817 C 214.411 304.731,227.115 288.742,227.890 264.000 C 228.038 259.262,227.925 256.904,227.411 254.000 C 227.041 251.910,226.567 249.036,226.359 247.613 C 224.123 232.389,212.466 214.829,186.254 187.202 C 158.854 158.323,151.257 137.973,158.482 112.808 C 164.889 90.488,190.665 70.255,217.600 66.402 C 219.250 66.166,222.220 65.710,224.200 65.390 C 226.180 65.070,228.340 64.733,229.000 64.641 C 233.658 63.993,250.832 64.779,257.200 65.932 " stroke="none" fill="#040404" fill-rule="evenodd"></path><path id="path2" d="M229.000 64.641 C 228.340 64.733,226.180 65.070,224.200 65.390 C 222.220 65.710,219.250 66.166,217.600 66.402 C 190.665 70.255,164.889 90.488,158.482 112.808 C 151.257 137.973,158.854 158.323,186.254 187.202 C 212.466 214.829,224.123 232.389,226.359 247.613 C 226.567 249.036,227.041 251.910,227.411 254.000 C 229.947 268.325,225.087 287.043,216.466 296.149 C 202.684 310.708,175.591 310.870,164.283 296.462 C 156.876 287.024,155.233 272.420,160.384 261.800 C 164.688 252.926,176.545 245.981,189.433 244.786 C 198.286 243.966,199.252 242.805,197.004 235.689 C 190.732 215.836,159.241 211.007,136.590 226.426 C 108.504 245.543,103.354 291.003,126.330 317.000 C 135.014 326.827,153.917 336.161,167.600 337.379 C 169.250 337.525,172.040 337.947,173.800 338.315 C 178.444 339.287,197.840 339.293,203.000 338.324 C 204.980 337.952,208.360 337.455,210.511 337.219 C 214.449 336.789,216.600 336.284,225.400 333.729 C 256.530 324.690,279.360 301.715,286.342 272.400 C 289.189 260.445,289.996 244.872,288.248 235.600 C 282.828 206.849,272.623 191.697,239.600 163.365 C 215.936 143.062,206.474 124.822,210.584 107.427 C 213.337 95.777,218.084 90.224,228.600 86.350 L 232.200 85.023 240.200 85.018 C 250.247 85.012,254.222 86.260,258.832 90.871 C 268.106 100.144,265.741 119.101,253.748 131.634 C 249.743 135.819,249.429 136.535,250.604 138.808 C 251.792 141.104,257.764 144.550,261.652 145.180 C 282.042 148.489,297.633 132.506,297.594 108.336 C 297.557 85.503,283.439 70.683,257.200 65.932 C 250.832 64.779,233.658 63.993,229.000 64.641 M255.600 66.998 C 279.808 70.967,292.893 82.404,295.770 102.112 C 298.541 121.085,289.680 138.703,275.070 143.276 C 262.600 147.178,246.739 140.082,253.626 133.683 C 268.849 119.536,269.921 94.465,255.627 86.847 C 239.132 78.055,216.780 85.356,210.941 101.444 C 203.488 121.977,211.684 140.480,238.800 164.342 C 272.362 193.875,281.407 207.067,286.667 234.156 C 288.930 245.809,287.427 265.658,283.301 278.600 C 273.700 308.718,243.329 332.079,208.404 336.209 C 205.656 336.534,202.326 337.009,201.004 337.264 C 197.104 338.018,179.453 337.900,174.400 337.086 C 172.090 336.714,168.400 336.146,166.200 335.823 C 155.978 334.322,143.276 329.101,135.000 322.999 C 104.175 300.268,106.356 246.921,138.948 226.425 C 160.237 213.037,190.148 217.843,195.611 235.528 C 197.525 241.727,196.836 242.596,189.316 243.459 C 165.501 246.192,152.167 262.721,156.771 283.800 C 160.716 301.861,178.706 311.956,198.981 307.485 C 227.680 301.158,238.432 261.824,220.599 228.398 C 214.338 216.663,207.183 207.619,187.932 187.109 C 163.068 160.618,154.246 141.389,157.771 121.364 C 163.235 90.313,189.685 70.153,230.600 65.852 C 235.624 65.324,249.178 65.945,255.600 66.998 " stroke="none" fill="#535353" fill-rule="evenodd"></path><path id="path3" d="M231.200 66.251 C 190.679 70.003,163.183 90.855,158.217 121.600 C 154.908 142.087,163.640 160.811,188.998 187.600 C 215.920 216.042,225.253 230.855,228.636 250.514 C 234.826 286.482,213.956 312.840,182.772 308.437 C 166.218 306.100,155.880 293.574,155.838 275.800 C 155.794 257.354,167.833 245.502,189.118 243.038 C 196.853 242.142,197.719 240.465,194.170 233.243 C 186.309 217.247,158.387 214.301,138.279 227.347 C 109.201 246.213,104.984 294.364,130.300 318.438 C 139.200 326.900,153.926 333.706,167.400 335.583 C 169.160 335.828,172.490 336.320,174.800 336.677 C 186.710 338.513,207.235 336.960,221.000 333.180 C 263.259 321.577,287.200 291.278,287.200 249.400 C 287.200 217.600,276.015 197.449,241.800 167.613 C 222.543 150.820,214.419 140.850,210.662 129.400 C 201.034 100.056,220.299 77.275,249.189 83.841 C 268.907 88.323,272.362 114.583,255.555 132.226 C 253.488 134.395,252.000 136.295,252.000 136.765 C 252.000 139.076,257.900 142.836,262.800 143.647 C 296.069 149.155,309.035 95.343,279.135 75.854 C 268.373 68.839,247.789 64.715,231.200 66.251 M253.482 68.384 C 283.385 72.769,297.597 89.327,294.001 115.592 C 291.220 135.904,273.198 148.431,257.852 140.720 C 253.386 138.476,252.662 136.941,255.026 134.732 C 273.855 117.138,270.941 88.172,249.800 82.790 C 226.219 76.787,207.119 91.001,207.055 114.600 C 207.005 132.800,215.329 146.168,240.196 167.828 C 275.059 198.196,286.000 217.680,286.000 249.400 C 286.000 301.223,246.843 336.000,188.494 336.000 C 139.929 336.000,112.534 312.001,115.209 271.800 C 116.668 249.891,128.052 232.507,146.200 224.478 C 164.120 216.549,186.114 220.586,192.663 233.004 C 196.342 239.980,195.813 240.919,187.600 241.993 C 164.289 245.040,151.235 261.366,154.971 282.800 C 161.149 318.248,212.886 319.838,226.760 285.007 C 233.641 267.731,231.704 245.150,221.789 227.062 C 215.401 215.407,209.158 207.467,191.388 188.400 C 169.282 164.680,161.834 152.532,159.417 136.255 C 153.197 94.362,200.059 60.549,253.482 68.384 " stroke="none" fill="#848484" fill-rule="evenodd"></path><path id="path4" d="M230.600 65.852 C 189.685 70.153,163.235 90.313,157.771 121.364 C 154.246 141.389,163.068 160.618,187.932 187.109 C 216.163 217.186,224.852 230.859,228.154 250.400 C 232.978 278.945,220.858 302.662,198.981 307.485 C 178.706 311.956,160.716 301.861,156.771 283.800 C 152.167 262.721,165.501 246.192,189.316 243.459 C 196.836 242.596,197.525 241.727,195.611 235.528 C 190.148 217.843,160.237 213.037,138.948 226.425 C 106.356 246.921,104.175 300.268,135.000 322.999 C 143.276 329.101,155.978 334.322,166.200 335.823 C 168.400 336.146,172.090 336.714,174.400 337.086 C 179.453 337.900,197.104 338.018,201.004 337.264 C 202.326 337.009,205.656 336.534,208.404 336.209 C 218.863 334.972,231.941 330.852,242.219 325.557 C 267.689 312.433,282.847 290.946,287.021 262.047 C 287.866 256.198,287.650 239.218,286.667 234.156 C 281.407 207.067,272.362 193.875,238.800 164.342 C 211.684 140.480,203.488 121.977,210.941 101.444 C 216.780 85.356,239.132 78.055,255.627 86.847 C 269.921 94.465,268.849 119.536,253.626 133.683 C 248.181 138.743,256.891 144.898,268.600 144.265 C 299.235 142.607,307.009 93.100,279.400 75.488 C 268.093 68.276,247.057 64.122,230.600 65.852 M255.200 67.407 C 277.444 70.968,291.177 81.605,294.619 97.939 C 298.552 116.606,292.115 134.443,279.023 141.158 C 270.479 145.540,258.078 144.494,253.239 138.984 C 251.420 136.911,251.604 136.373,255.555 132.226 C 272.362 114.583,268.907 88.323,249.189 83.841 C 220.299 77.275,201.034 100.056,210.662 129.400 C 214.419 140.850,222.543 150.820,241.800 167.613 C 276.015 197.449,287.200 217.600,287.200 249.400 C 287.200 302.112,247.382 337.408,188.000 337.335 C 181.752 337.328,177.716 337.126,174.800 336.677 C 172.490 336.320,169.160 335.828,167.400 335.583 C 153.926 333.706,139.200 326.900,130.300 318.438 C 104.984 294.364,109.201 246.213,138.279 227.347 C 158.387 214.301,186.309 217.247,194.170 233.243 C 197.719 240.465,196.853 242.142,189.118 243.038 C 167.833 245.502,155.794 257.354,155.838 275.800 C 155.880 293.574,166.218 306.100,182.772 308.437 C 225.139 314.418,244.495 264.896,216.907 221.104 C 211.939 213.218,202.340 201.695,188.998 187.600 C 179.575 177.645,171.965 168.268,167.567 161.193 C 142.013 120.084,168.216 75.436,222.600 67.420 C 234.549 65.659,244.257 65.655,255.200 67.407 " stroke="none" fill="#7c7c7c" fill-rule="evenodd"></path></g></svg>